<svg id="aluConfiguratorContainer" version="1.1" xmlns="http://www.w3.org/2000/svg" viewBox="-100,-164,357,450">
    <desc>Created with Snap</desc>
    <defs>
        <linearGradient x1="77" y1="61" x2="0" y2="125" gradientUnits="userSpaceOnUse" id="Sk29c738h2">
            <stop offset="0%" stop-color="#a5a5a5"/>
            <stop offset="100%" stop-color="#eeeeee"/>
        </linearGradient>
        <linearGradient x1="117" y1="186" x2="40" y2="250" gradientUnits="userSpaceOnUse" id="Sk29c738h6">
            <stop offset="0%" stop-color="#a5a5a5" />
            <stop offset="100%" stop-color="#eeeeee" />
        </linearGradient>
        <linearGradient x1="157" y1="176" x2="80" y2="240" gradientUnits="userSpaceOnUse" id="Sk29c738ha">
            <stop offset="0%" stop-color="#a5a5a5" />
            <stop offset="100%" stop-color="#eeeeee" />
        </linearGradient>
        <linearGradient x1="117" y1="-64" x2="40" y2="0" gradientUnits="userSpaceOnUse" id="Sk29c738he">
            <stop offset="0%" stop-color="#a5a5a5" />
            <stop offset="100%" stop-color="#eeeeee" />
        </linearGradient>
        <linearGradient x1="157" y1="-54" x2="80" y2="10" gradientUnits="userSpaceOnUse" id="Sk29c738hi">
            <stop offset="0%" stop-color="#a5a5a5" />
            <stop offset="100%" stop-color="#eeeeee" />
        </linearGradient>
    </defs>
    <polygon points="0,0,77,-64,77,186,0,250" fill="url(#Sk29c738h2)" stroke="#cccccc" style="opacity: 0.9;" />
    <polygon points="0,250,77,186,157,186,80,250" fill="url(#Sk29c738h6)" stroke="#cccccc"
             style="opacity: 0.9;" />
    <polygon points="80,250,157,186,157,166,80,230" fill="url(#Sk29c738ha)" stroke="#cccccc"
             style="opacity: 0.9;" />
    <polygon points="0,0,77,-64,157,-64,80,0" fill="url(#Sk29c738he)" stroke="#cccccc" style="opacity: 0.9;" />
    <polygon points="80,0,157,-64,157,-44,80,20" fill="url(#Sk29c738hi)" stroke="#cccccc"
             style="opacity: 0.9;" />
    <line x1="0" x2="0" y1="0" y2="250" fill="#ff0000" stroke="#0000ff" style="stroke-width: 1;" />
    <line x1="0" x2="80" y1="250" y2="250" fill="#ff0000" stroke="#0000ff" style="stroke-width: 1;" />
    <line x1="80" x2="80" y1="250" y2="230" fill="#ff0000" stroke="#0000ff" style="stroke-width: 1;" />
    <line x1="0" x2="80" y1="0" y2="0" fill="#ff0000" stroke="#0000ff" style="stroke-width: 1;" />
    <line x1="80" x2="80" y1="0" y2="20" fill="#ff0000" stroke="#0000ff" style="stroke-width: 1;" />
    <text x="0" y="125" fill="#ff0000" style="font-size: 14px; text-anchor: middle;">C</text>
    <text x="40" y="250" fill="#ff0000" style="font-size: 14px; text-anchor: middle;">D</text>
    <text x="80" y="240" fill="#ff0000" style="font-size: 14px; text-anchor: middle;">E</text>
    <text x="40" y="0" fill="#ff0000" style="font-size: 14px; text-anchor: middle;">B</text>
    <text x="80" y="10" fill="#ff0000" style="font-size: 14px; text-anchor: middle;">A</text>
</svg>